<svg width="19" height="12" viewBox="0 0 19 12" fill="none" xmlns="http://www.w3.org/2000/svg">
<path d="M3.3402 11.1392C2.71709 11.1392 2.15696 11.0199 1.6598 10.7812C1.16596 10.5393 0.771544 10.2079 0.476562 9.78693C0.181581 9.366 0.0241478 8.88542 0.00426134 8.34517H1.49574C1.5322 8.78267 1.72609 9.14228 2.07741 9.42401C2.42874 9.70573 2.84967 9.84659 3.3402 9.84659C3.7313 9.84659 4.07765 9.7571 4.37926 9.57812C4.68419 9.39583 4.92282 9.1456 5.09517 8.82741C5.27083 8.50923 5.35866 8.14631 5.35866 7.73864C5.35866 7.32434 5.26918 6.95478 5.0902 6.62997C4.91122 6.30516 4.6643 6.04995 4.34943 5.86435C4.03788 5.67874 3.67992 5.58428 3.27557 5.58097C2.96733 5.58097 2.65743 5.634 2.34588 5.74006C2.03433 5.84612 1.78243 5.98532 1.5902 6.15767L0.183239 5.94886L0.754972 0.818182H6.35298V2.13565H2.03267L1.70952 4.98438H1.76918C1.96804 4.79214 2.23153 4.63139 2.55966 4.50213C2.8911 4.37287 3.24574 4.30824 3.62358 4.30824C4.24337 4.30824 4.79522 4.45573 5.27912 4.75071C5.76634 5.04569 6.14915 5.44839 6.42756 5.95881C6.70928 6.46591 6.84848 7.04924 6.84517 7.70881C6.84848 8.36837 6.69934 8.95668 6.39773 9.47372C6.09943 9.99077 5.68513 10.3984 5.15483 10.6967C4.62784 10.9917 4.02296 11.1392 3.3402 11.1392ZM9.15119 11.0945C8.87941 11.0945 8.64575 10.9983 8.4502 10.8061C8.25465 10.6106 8.15687 10.3752 8.15687 10.1001C8.15687 9.82836 8.25465 9.59635 8.4502 9.40412C8.64575 9.20857 8.87941 9.1108 9.15119 9.1108C9.42297 9.1108 9.65664 9.20857 9.85219 9.40412C10.0477 9.59635 10.1455 9.82836 10.1455 10.1001C10.1455 10.2824 10.0991 10.4498 10.0063 10.6023C9.91682 10.7514 9.7975 10.8707 9.64835 10.9602C9.4992 11.0497 9.33348 11.0945 9.15119 11.0945ZM15.1524 11.169C14.3668 11.1657 13.6957 10.9586 13.1389 10.5476C12.582 10.1366 12.1561 9.53835 11.8612 8.75284C11.5662 7.96733 11.4187 7.02107 11.4187 5.91406C11.4187 4.81037 11.5662 3.86742 11.8612 3.08523C12.1595 2.30303 12.587 1.70644 13.1438 1.29545C13.704 0.884469 14.3735 0.678977 15.1524 0.678977C15.9312 0.678977 16.5991 0.886126 17.1559 1.30043C17.7127 1.71141 18.1386 2.308 18.4336 3.0902C18.7319 3.86908 18.881 4.81037 18.881 5.91406C18.881 7.02438 18.7336 7.9723 18.4386 8.75781C18.1436 9.54001 17.7177 10.1383 17.1609 10.5526C16.6041 10.9635 15.9345 11.169 15.1524 11.169ZM15.1524 9.84162C15.8417 9.84162 16.3803 9.50521 16.7681 8.83239C17.1592 8.15956 17.3548 7.18679 17.3548 5.91406C17.3548 5.06889 17.2653 4.35464 17.0863 3.77131C16.9106 3.18466 16.6571 2.74053 16.3256 2.43892C15.9975 2.134 15.6064 1.98153 15.1524 1.98153C14.4663 1.98153 13.9277 2.3196 13.5366 2.99574C13.1455 3.67187 12.9483 4.64465 12.945 5.91406C12.945 6.76255 13.0328 7.48011 13.2085 8.06676C13.3874 8.65009 13.641 9.09257 13.9691 9.39418C14.2972 9.69247 14.6917 9.84162 15.1524 9.84162Z" fill="#4E5566"/>
</svg>
