<svg width="26" height="26" viewBox="0 0 26 26" fill="none" xmlns="http://www.w3.org/2000/svg">
<g filter="url(#filter0_d_4641_17385)">
<path d="M21.9507 5.29205C21.9086 4.33564 21.7539 3.67812 21.5324 3.10836C21.3038 2.50359 20.9522 1.96213 20.4915 1.51201C20.0414 1.05489 19.4963 0.699691 18.8986 0.474702C18.3255 0.253147 17.6714 0.0984842 16.715 0.0563159C15.7515 0.0105764 15.4456 0 13.0017 0C10.5579 0 10.252 0.0105764 9.29204 0.0527447C8.33563 0.0949129 7.67811 0.249713 7.1085 0.471131C6.50358 0.699691 5.96213 1.05132 5.51201 1.51201C5.05489 1.96213 4.69983 2.50716 4.4747 3.10493C4.25315 3.67812 4.09848 4.33207 4.05632 5.28848C4.01058 6.25203 4 6.55792 4 9.00176C4 11.4456 4.01058 11.7515 4.05274 12.7115C4.09491 13.6679 4.24971 14.3254 4.47127 14.8952C4.69983 15.4999 5.05489 16.0414 5.51201 16.4915C5.96213 16.9486 6.50715 17.3038 7.10493 17.5288C7.67811 17.7504 8.33206 17.905 9.28861 17.9472C10.2484 17.9895 10.5545 17.9999 12.9983 17.9999C15.4421 17.9999 15.748 17.9895 16.708 17.9472C17.6644 17.905 18.3219 17.7504 18.8916 17.5288C20.1012 17.0611 21.0577 16.1047 21.5254 14.8952C21.7468 14.322 21.9016 13.6679 21.9437 12.7115C21.9859 11.7515 21.9965 11.4456 21.9965 9.00176C21.9965 6.55792 21.9929 6.25203 21.9507 5.29205ZM20.3298 12.6411C20.2911 13.5202 20.1434 13.9949 20.0203 14.3114C19.7179 15.0956 19.0955 15.7179 18.3114 16.0204C17.9949 16.1434 17.5168 16.2911 16.6411 16.3297C15.6917 16.372 15.407 16.3824 13.0053 16.3824C10.6037 16.3824 10.3153 16.372 9.36937 16.3297C8.4903 16.2911 8.01559 16.1434 7.69913 16.0204C7.3089 15.8761 6.9537 15.6476 6.66539 15.3487C6.3665 15.0568 6.13794 14.7052 5.99372 14.315C5.87065 13.9985 5.72299 13.5202 5.68439 12.6447C5.64209 11.6953 5.63165 11.4104 5.63165 9.00876C5.63165 6.60709 5.64209 6.31878 5.68439 5.37295C5.72299 4.49387 5.87065 4.01917 5.99372 3.7027C6.13794 3.31234 6.3665 2.95727 6.66896 2.66883C6.9607 2.36994 7.31233 2.14138 7.7027 1.99729C8.01917 1.87422 8.49744 1.72656 9.37294 1.68783C10.3223 1.64566 10.6072 1.63508 13.0087 1.63508C15.414 1.63508 15.6987 1.64566 16.6447 1.68783C17.5238 1.72656 17.9985 1.87422 18.3149 1.99729C18.7052 2.14138 19.0604 2.36994 19.3487 2.66883C19.6476 2.96071 19.8761 3.31234 20.0203 3.7027C20.1434 4.01917 20.2911 4.49731 20.3298 5.37295C20.372 6.32236 20.3826 6.60709 20.3826 9.00876C20.3826 11.4104 20.372 11.6917 20.3298 12.6411Z" fill="white"/>
<path d="M13.0019 4.37744C10.4491 4.37744 8.37793 6.44849 8.37793 9.00139C8.37793 11.5543 10.4491 13.6253 13.0019 13.6253C15.5548 13.6253 17.6258 11.5543 17.6258 9.00139C17.6258 6.44849 15.5548 4.37744 13.0019 4.37744ZM13.0019 12.0008C11.3458 12.0008 10.0024 10.6576 10.0024 9.00139C10.0024 7.34515 11.3458 6.00195 13.0019 6.00195C14.6581 6.00195 16.0013 7.34515 16.0013 9.00139C16.0013 10.6576 14.6581 12.0008 13.0019 12.0008Z" fill="white"/>
<path d="M18.8876 4.19521C18.8876 4.79133 18.4043 5.27469 17.808 5.27469C17.2119 5.27469 16.7285 4.79133 16.7285 4.19521C16.7285 3.59894 17.2119 3.11572 17.808 3.11572C18.4043 3.11572 18.8876 3.59894 18.8876 4.19521Z" fill="white"/>
</g>
<defs>
<filter id="filter0_d_4641_17385" x="0" y="0" width="25.9965" height="26" filterUnits="userSpaceOnUse" color-interpolation-filters="sRGB">
<feFlood flood-opacity="0" result="BackgroundImageFix"/>
<feColorMatrix in="SourceAlpha" type="matrix" values="0 0 0 0 0 0 0 0 0 0 0 0 0 0 0 0 0 0 127 0" result="hardAlpha"/>
<feOffset dy="4"/>
<feGaussianBlur stdDeviation="2"/>
<feComposite in2="hardAlpha" operator="out"/>
<feColorMatrix type="matrix" values="0 0 0 0 0 0 0 0 0 0 0 0 0 0 0 0 0 0 0.25 0"/>
<feBlend mode="normal" in2="BackgroundImageFix" result="effect1_dropShadow_4641_17385"/>
<feBlend mode="normal" in="SourceGraphic" in2="effect1_dropShadow_4641_17385" result="shape"/>
</filter>
</defs>
</svg>
