<svg width="26" height="26" viewBox="0 0 26 26" fill="none" xmlns="http://www.w3.org/2000/svg">
<g filter="url(#filter0_d_4641_17390)">
<path d="M21.992 18.0002V17.9994H21.9965V11.3979C21.9965 8.16841 21.3012 5.68066 17.5257 5.68066C15.7107 5.68066 14.4927 6.67666 13.9955 7.62091H13.943V5.98216H10.3632V17.9994H14.0907V12.0489C14.0907 10.4822 14.3877 8.96716 16.328 8.96716C18.2397 8.96716 18.2682 10.7552 18.2682 12.1494V18.0002H21.992Z" fill="white"/>
<path d="M4.29349 5.98291H8.02549V18.0002H4.29349V5.98291Z" fill="white"/>
<path d="M6.15799 0C4.96474 0 3.99649 0.96825 3.99649 2.1615C3.99649 3.35475 4.96474 4.34325 6.15799 4.34325C7.35124 4.34325 8.31949 3.35475 8.31949 2.1615C8.31874 0.96825 7.35049 0 6.15799 0V0Z" fill="white"/>
</g>
<defs>
<filter id="filter0_d_4641_17390" x="-0.00350952" y="0" width="26" height="26" filterUnits="userSpaceOnUse" color-interpolation-filters="sRGB">
<feFlood flood-opacity="0" result="BackgroundImageFix"/>
<feColorMatrix in="SourceAlpha" type="matrix" values="0 0 0 0 0 0 0 0 0 0 0 0 0 0 0 0 0 0 127 0" result="hardAlpha"/>
<feOffset dy="4"/>
<feGaussianBlur stdDeviation="2"/>
<feComposite in2="hardAlpha" operator="out"/>
<feColorMatrix type="matrix" values="0 0 0 0 0 0 0 0 0 0 0 0 0 0 0 0 0 0 0.25 0"/>
<feBlend mode="normal" in2="BackgroundImageFix" result="effect1_dropShadow_4641_17390"/>
<feBlend mode="normal" in="SourceGraphic" in2="effect1_dropShadow_4641_17390" result="shape"/>
</filter>
</defs>
</svg>
