<svg width="26" height="25" viewBox="0 0 26 25" fill="none" xmlns="http://www.w3.org/2000/svg">
<g clip-path="url(#clip0_4641_17395)" filter="url(#filter0_d_4641_17395)">
<path d="M21.9965 3.73137C21.3271 4.025 20.6139 4.21962 19.8702 4.31412C20.6352 3.85737 21.2191 3.13962 21.4936 2.2745C20.7804 2.69975 19.9929 3.00013 19.1536 3.16775C18.4764 2.44663 17.5111 2 16.4581 2C14.4151 2 12.7704 3.65825 12.7704 5.69113C12.7704 5.98363 12.7951 6.26487 12.8559 6.53262C9.78799 6.383 7.07337 4.91263 5.24974 2.67275C4.93137 3.22513 4.74462 3.85738 4.74462 4.538C4.74462 5.816 5.40274 6.94887 6.38374 7.60475C5.79087 7.5935 5.20924 7.42138 4.71649 7.15025C4.71649 7.1615 4.71649 7.17613 4.71649 7.19075C4.71649 8.984 5.99562 10.4735 7.67299 10.8166C7.37262 10.8988 7.04524 10.9381 6.70549 10.9381C6.46924 10.9381 6.23074 10.9246 6.00687 10.8751C6.48499 12.3365 7.84174 13.4109 9.45499 13.4457C8.19949 14.4279 6.60537 15.0196 4.87962 15.0196C4.57699 15.0196 4.28674 15.0061 3.99649 14.969C5.63112 16.0231 7.56837 16.625 9.65749 16.625C16.448 16.625 20.1605 11 20.1605 6.12425C20.1605 5.96112 20.1549 5.80363 20.147 5.64725C20.8794 5.1275 21.4947 4.47837 21.9965 3.73137Z" fill="white"/>
</g>
<defs>
<filter id="filter0_d_4641_17395" x="-0.00350952" y="0" width="26" height="26" filterUnits="userSpaceOnUse" color-interpolation-filters="sRGB">
<feFlood flood-opacity="0" result="BackgroundImageFix"/>
<feColorMatrix in="SourceAlpha" type="matrix" values="0 0 0 0 0 0 0 0 0 0 0 0 0 0 0 0 0 0 127 0" result="hardAlpha"/>
<feOffset dy="4"/>
<feGaussianBlur stdDeviation="2"/>
<feComposite in2="hardAlpha" operator="out"/>
<feColorMatrix type="matrix" values="0 0 0 0 0 0 0 0 0 0 0 0 0 0 0 0 0 0 0.25 0"/>
<feBlend mode="normal" in2="BackgroundImageFix" result="effect1_dropShadow_4641_17395"/>
<feBlend mode="normal" in="SourceGraphic" in2="effect1_dropShadow_4641_17395" result="shape"/>
</filter>
<clipPath id="clip0_4641_17395">
<rect width="18" height="18" fill="white" transform="translate(3.99649)"/>
</clipPath>
</defs>
</svg>
